<svg xmlns="http://www.w3.org/2000/svg" xmlns:xlink="http://www.w3.org/1999/xlink" width="256" zoomAndPan="magnify" viewBox="0 0 192 191.999996" height="256" preserveAspectRatio="xMidYMid meet" version="1.0"><defs><clipPath id="ff8341dce0"><path d="M 0 0 L 191.792969 0 L 191.792969 188.84375 L 0 188.84375 Z M 0 0 " clip-rule="nonzero"/></clipPath><clipPath id="9a8e40dbb2"><path d="M 22.5 0 L 169.5 0 C 175.46875 0 181.191406 2.371094 185.410156 6.589844 C 189.628906 10.808594 192 16.53125 192 22.5 L 192 166.34375 C 192 178.769531 181.925781 188.84375 169.5 188.84375 L 22.5 188.84375 C 10.074219 188.84375 0 178.769531 0 166.34375 L 0 22.5 C 0 10.074219 10.074219 0 22.5 0 Z M 22.5 0 " clip-rule="nonzero"/></clipPath><linearGradient x1="0.00668335" gradientTransform="matrix(0.73767, 0, 0, 0.73767, -0.00492811, 0)" y1="128" x2="260.006668" gradientUnits="userSpaceOnUse" y2="128" id="83d8d9c9a2"><stop stop-opacity="1" stop-color="rgb(71.398926%, 37.599182%, 36.499023%)" offset="0"/><stop stop-opacity="1" stop-color="rgb(71.322632%, 37.417603%, 36.314392%)" offset="0.015625"/><stop stop-opacity="1" stop-color="rgb(71.170044%, 37.057495%, 35.945129%)" offset="0.03125"/><stop stop-opacity="1" stop-color="rgb(71.01593%, 36.697388%, 35.577393%)" offset="0.046875"/><stop stop-opacity="1" stop-color="rgb(70.863342%, 36.335754%, 35.209656%)" offset="0.0625"/><stop stop-opacity="1" stop-color="rgb(70.710754%, 35.975647%, 34.840393%)" offset="0.078125"/><stop stop-opacity="1" stop-color="rgb(70.558167%, 35.61554%, 34.472656%)" offset="0.09375"/><stop stop-opacity="1" stop-color="rgb(70.404053%, 35.255432%, 34.103394%)" offset="0.109375"/><stop stop-opacity="1" stop-color="rgb(70.251465%, 34.893799%, 33.735657%)" offset="0.125"/><stop stop-opacity="1" stop-color="rgb(70.098877%, 34.533691%, 33.36792%)" offset="0.140625"/><stop stop-opacity="1" stop-color="rgb(69.946289%, 34.173584%, 32.998657%)" offset="0.15625"/><stop stop-opacity="1" stop-color="rgb(69.792175%, 33.811951%, 32.63092%)" offset="0.171875"/><stop stop-opacity="1" stop-color="rgb(69.639587%, 33.451843%, 32.261658%)" offset="0.1875"/><stop stop-opacity="1" stop-color="rgb(69.487%, 33.091736%, 31.893921%)" offset="0.203125"/><stop stop-opacity="1" stop-color="rgb(69.334412%, 32.731628%, 31.524658%)" offset="0.21875"/><stop stop-opacity="1" stop-color="rgb(69.180298%, 32.369995%, 31.156921%)" offset="0.234375"/><stop stop-opacity="1" stop-color="rgb(69.02771%, 32.009888%, 30.789185%)" offset="0.25"/><stop stop-opacity="1" stop-color="rgb(68.875122%, 31.64978%, 30.419922%)" offset="0.265625"/><stop stop-opacity="1" stop-color="rgb(68.722534%, 31.288147%, 30.052185%)" offset="0.28125"/><stop stop-opacity="1" stop-color="rgb(68.56842%, 30.92804%, 29.682922%)" offset="0.296875"/><stop stop-opacity="1" stop-color="rgb(68.415833%, 30.567932%, 29.315186%)" offset="0.3125"/><stop stop-opacity="1" stop-color="rgb(68.263245%, 30.207825%, 28.947449%)" offset="0.328125"/><stop stop-opacity="1" stop-color="rgb(68.110657%, 29.846191%, 28.578186%)" offset="0.34375"/><stop stop-opacity="1" stop-color="rgb(67.956543%, 29.486084%, 28.210449%)" offset="0.359375"/><stop stop-opacity="1" stop-color="rgb(67.803955%, 29.125977%, 27.841187%)" offset="0.375"/><stop stop-opacity="1" stop-color="rgb(67.651367%, 28.764343%, 27.47345%)" offset="0.390625"/><stop stop-opacity="1" stop-color="rgb(67.498779%, 28.404236%, 27.105713%)" offset="0.40625"/><stop stop-opacity="1" stop-color="rgb(67.344666%, 28.044128%, 26.73645%)" offset="0.421875"/><stop stop-opacity="1" stop-color="rgb(67.192078%, 27.684021%, 26.368713%)" offset="0.4375"/><stop stop-opacity="1" stop-color="rgb(67.03949%, 27.322388%, 25.999451%)" offset="0.453125"/><stop stop-opacity="1" stop-color="rgb(66.886902%, 26.96228%, 25.631714%)" offset="0.46875"/><stop stop-opacity="1" stop-color="rgb(66.732788%, 26.602173%, 25.263977%)" offset="0.484375"/><stop stop-opacity="1" stop-color="rgb(66.5802%, 26.24054%, 24.894714%)" offset="0.5"/><stop stop-opacity="1" stop-color="rgb(66.427612%, 25.880432%, 24.526978%)" offset="0.515625"/><stop stop-opacity="1" stop-color="rgb(66.275024%, 25.520325%, 24.157715%)" offset="0.53125"/><stop stop-opacity="1" stop-color="rgb(66.120911%, 25.158691%, 23.789978%)" offset="0.546875"/><stop stop-opacity="1" stop-color="rgb(65.968323%, 24.798584%, 23.422241%)" offset="0.5625"/><stop stop-opacity="1" stop-color="rgb(65.815735%, 24.438477%, 23.052979%)" offset="0.578125"/><stop stop-opacity="1" stop-color="rgb(65.663147%, 24.078369%, 22.685242%)" offset="0.59375"/><stop stop-opacity="1" stop-color="rgb(65.510559%, 23.716736%, 22.315979%)" offset="0.609375"/><stop stop-opacity="1" stop-color="rgb(65.356445%, 23.356628%, 21.948242%)" offset="0.625"/><stop stop-opacity="1" stop-color="rgb(65.203857%, 22.996521%, 21.580505%)" offset="0.640625"/><stop stop-opacity="1" stop-color="rgb(65.05127%, 22.634888%, 21.211243%)" offset="0.65625"/><stop stop-opacity="1" stop-color="rgb(64.898682%, 22.27478%, 20.843506%)" offset="0.671875"/><stop stop-opacity="1" stop-color="rgb(64.744568%, 21.914673%, 20.474243%)" offset="0.6875"/><stop stop-opacity="1" stop-color="rgb(64.59198%, 21.554565%, 20.106506%)" offset="0.703125"/><stop stop-opacity="1" stop-color="rgb(64.439392%, 21.192932%, 19.73877%)" offset="0.71875"/><stop stop-opacity="1" stop-color="rgb(64.286804%, 20.832825%, 19.369507%)" offset="0.734375"/><stop stop-opacity="1" stop-color="rgb(64.13269%, 20.472717%, 19.00177%)" offset="0.75"/><stop stop-opacity="1" stop-color="rgb(63.980103%, 20.111084%, 18.632507%)" offset="0.765625"/><stop stop-opacity="1" stop-color="rgb(63.827515%, 19.750977%, 18.264771%)" offset="0.78125"/><stop stop-opacity="1" stop-color="rgb(63.674927%, 19.390869%, 17.895508%)" offset="0.796875"/><stop stop-opacity="1" stop-color="rgb(63.520813%, 19.030762%, 17.527771%)" offset="0.8125"/><stop stop-opacity="1" stop-color="rgb(63.368225%, 18.669128%, 17.160034%)" offset="0.828125"/><stop stop-opacity="1" stop-color="rgb(63.215637%, 18.309021%, 16.790771%)" offset="0.84375"/><stop stop-opacity="1" stop-color="rgb(63.063049%, 17.948914%, 16.423035%)" offset="0.859375"/><stop stop-opacity="1" stop-color="rgb(62.908936%, 17.58728%, 16.053772%)" offset="0.875"/><stop stop-opacity="1" stop-color="rgb(62.756348%, 17.227173%, 15.686035%)" offset="0.890625"/><stop stop-opacity="1" stop-color="rgb(62.60376%, 16.867065%, 15.318298%)" offset="0.90625"/><stop stop-opacity="1" stop-color="rgb(62.451172%, 16.506958%, 14.949036%)" offset="0.921875"/><stop stop-opacity="1" stop-color="rgb(62.297058%, 16.145325%, 14.581299%)" offset="0.9375"/><stop stop-opacity="1" stop-color="rgb(62.14447%, 15.785217%, 14.212036%)" offset="0.953125"/><stop stop-opacity="1" stop-color="rgb(61.991882%, 15.42511%, 13.844299%)" offset="0.96875"/><stop stop-opacity="1" stop-color="rgb(61.839294%, 15.063477%, 13.476562%)" offset="0.984375"/><stop stop-opacity="1" stop-color="rgb(61.685181%, 14.703369%, 13.1073%)" offset="1"/></linearGradient><clipPath id="5639b1a076"><path d="M 30.085938 44 L 133 44 L 133 146.9375 L 30.085938 146.9375 Z M 30.085938 44 " clip-rule="nonzero"/></clipPath><clipPath id="a874f2278e"><path d="M 106 37.632812 L 165.914062 37.632812 L 165.914062 97 L 106 97 Z M 106 37.632812 " clip-rule="nonzero"/></clipPath><clipPath id="0943519ba9"><path d="M 94 108.066406 L 108.179688 108.066406 L 108.179688 117 L 94 117 Z M 94 108.066406 " clip-rule="nonzero"/></clipPath></defs><g clip-path="url(#ff8341dce0)"><g clip-path="url(#9a8e40dbb2)"><path fill="url(#83d8d9c9a2)" d="M 0 0 L 0 188.84375 L 191.792969 188.84375 L 191.792969 0 Z M 0 0 " fill-rule="nonzero"/></g></g><g clip-path="url(#5639b1a076)"><path fill="#ffffff" d="M 120.34375 147.058594 L 42.382812 147.058594 C 41.578125 147.058594 40.777344 146.976562 39.984375 146.820312 C 39.195312 146.660156 38.425781 146.425781 37.679688 146.117188 C 36.933594 145.808594 36.226562 145.429688 35.554688 144.980469 C 34.882812 144.53125 34.261719 144.023438 33.691406 143.453125 C 33.121094 142.882812 32.609375 142.261719 32.160156 141.589844 C 31.714844 140.917969 31.335938 140.210938 31.023438 139.464844 C 30.714844 138.71875 30.480469 137.949219 30.324219 137.15625 C 30.164062 136.367188 30.085938 135.566406 30.085938 134.757812 L 30.085938 56.800781 C 30.085938 55.992188 30.167969 55.195312 30.324219 54.402344 C 30.484375 53.609375 30.714844 52.839844 31.027344 52.097656 C 31.335938 51.351562 31.714844 50.640625 32.164062 49.972656 C 32.613281 49.300781 33.121094 48.679688 33.691406 48.109375 C 34.261719 47.539062 34.882812 47.027344 35.554688 46.578125 C 36.226562 46.128906 36.933594 45.75 37.679688 45.441406 C 38.425781 45.132812 39.195312 44.898438 39.988281 44.738281 C 40.777344 44.582031 41.578125 44.503906 42.382812 44.5 L 118.230469 44.5 C 118.476562 44.5 118.714844 44.550781 118.945312 44.644531 C 119.175781 44.738281 119.375 44.875 119.550781 45.046875 C 119.726562 45.222656 119.863281 45.425781 119.957031 45.65625 C 120.050781 45.882812 120.097656 46.121094 120.097656 46.371094 C 120.097656 46.617188 120.050781 46.855469 119.957031 47.085938 C 119.863281 47.3125 119.726562 47.515625 119.550781 47.691406 C 119.375 47.867188 119.175781 48 118.945312 48.097656 C 118.714844 48.191406 118.476562 48.238281 118.230469 48.238281 L 42.382812 48.238281 C 41.824219 48.238281 41.265625 48.292969 40.714844 48.40625 C 40.164062 48.515625 39.628906 48.675781 39.109375 48.894531 C 38.589844 49.109375 38.097656 49.371094 37.628906 49.683594 C 37.164062 49.996094 36.730469 50.351562 36.332031 50.75 C 35.9375 51.148438 35.582031 51.578125 35.269531 52.046875 C 34.957031 52.511719 34.691406 53.007812 34.476562 53.527344 C 34.261719 54.042969 34.097656 54.578125 33.988281 55.128906 C 33.878906 55.683594 33.824219 56.238281 33.824219 56.800781 L 33.824219 134.757812 C 33.824219 135.320312 33.878906 135.878906 33.988281 136.429688 C 34.097656 136.980469 34.261719 137.515625 34.476562 138.035156 C 34.691406 138.554688 34.957031 139.046875 35.269531 139.515625 C 35.582031 139.980469 35.933594 140.414062 36.332031 140.8125 C 36.730469 141.207031 37.164062 141.5625 37.628906 141.875 C 38.097656 142.1875 38.589844 142.453125 39.109375 142.667969 C 39.628906 142.882812 40.164062 143.046875 40.714844 143.15625 C 41.265625 143.265625 41.824219 143.320312 42.382812 143.320312 L 120.34375 143.320312 C 120.90625 143.320312 121.460938 143.265625 122.011719 143.15625 C 122.5625 143.046875 123.097656 142.882812 123.617188 142.667969 C 124.136719 142.453125 124.628906 142.1875 125.097656 141.875 C 125.566406 141.5625 125.996094 141.207031 126.394531 140.8125 C 126.792969 140.414062 127.148438 139.980469 127.460938 139.515625 C 127.773438 139.046875 128.035156 138.554688 128.25 138.035156 C 128.464844 137.515625 128.628906 136.980469 128.738281 136.429688 C 128.847656 135.878906 128.90625 135.320312 128.90625 134.757812 L 128.90625 94.335938 C 128.90625 94.085938 128.953125 93.847656 129.046875 93.621094 C 129.140625 93.390625 129.277344 93.1875 129.453125 93.015625 C 129.628906 92.839844 129.828125 92.703125 130.058594 92.609375 C 130.289062 92.515625 130.527344 92.46875 130.773438 92.46875 C 131.019531 92.46875 131.261719 92.515625 131.488281 92.609375 C 131.71875 92.703125 131.917969 92.839844 132.09375 93.015625 C 132.269531 93.1875 132.40625 93.390625 132.5 93.621094 C 132.59375 93.847656 132.640625 94.085938 132.640625 94.335938 L 132.640625 134.757812 C 132.640625 135.566406 132.5625 136.367188 132.402344 137.15625 C 132.246094 137.949219 132.011719 138.71875 131.703125 139.464844 C 131.394531 140.207031 131.011719 140.917969 130.566406 141.589844 C 130.117188 142.257812 129.605469 142.878906 129.035156 143.453125 C 128.464844 144.023438 127.84375 144.53125 127.171875 144.980469 C 126.5 145.429688 125.792969 145.808594 125.046875 146.117188 C 124.300781 146.425781 123.53125 146.660156 122.742188 146.820312 C 121.949219 146.976562 121.148438 147.058594 120.34375 147.058594 Z M 120.34375 147.058594 " fill-opacity="1" fill-rule="nonzero"/></g><path fill="#ffffff" d="M 67.363281 87.234375 C 67.113281 87.234375 66.875 87.1875 66.648438 87.089844 C 66.417969 86.996094 66.214844 86.863281 66.039062 86.6875 C 65.863281 86.511719 65.730469 86.308594 65.636719 86.082031 C 65.539062 85.851562 65.492188 85.613281 65.492188 85.363281 L 65.492188 46.367188 C 65.492188 46.121094 65.542969 45.878906 65.636719 45.652344 C 65.730469 45.421875 65.867188 45.222656 66.039062 45.046875 C 66.214844 44.871094 66.417969 44.734375 66.648438 44.640625 C 66.875 44.546875 67.113281 44.5 67.363281 44.5 L 95.367188 44.5 C 95.613281 44.5 95.851562 44.546875 96.082031 44.640625 C 96.308594 44.734375 96.511719 44.871094 96.6875 45.046875 C 96.863281 45.222656 96.996094 45.421875 97.09375 45.652344 C 97.1875 45.878906 97.234375 46.121094 97.234375 46.367188 L 97.234375 85.363281 C 97.234375 85.722656 97.136719 86.054688 96.945312 86.359375 C 96.753906 86.664062 96.496094 86.890625 96.175781 87.046875 C 95.851562 87.203125 95.511719 87.261719 95.152344 87.21875 C 94.796875 87.179688 94.480469 87.046875 94.199219 86.820312 L 81.390625 76.5625 L 68.527344 86.824219 C 68.1875 87.097656 67.800781 87.234375 67.363281 87.234375 Z M 69.230469 48.238281 L 69.230469 81.484375 L 80.222656 72.710938 C 80.566406 72.441406 80.953125 72.304688 81.390625 72.304688 C 81.828125 72.304688 82.21875 72.441406 82.558594 72.710938 L 93.496094 81.472656 L 93.496094 48.238281 Z M 69.230469 48.238281 " fill-opacity="1" fill-rule="nonzero"/><path fill="#ffffff" d="M 49.316406 127.289062 C 49.066406 127.289062 48.828125 127.242188 48.601562 127.144531 C 48.371094 127.050781 48.167969 126.917969 47.992188 126.742188 C 47.816406 126.566406 47.683594 126.363281 47.589844 126.136719 C 47.492188 125.90625 47.445312 125.667969 47.445312 125.421875 L 47.445312 105.132812 C 47.445312 104.886719 47.492188 104.648438 47.589844 104.417969 C 47.683594 104.191406 47.816406 103.988281 47.992188 103.8125 C 48.167969 103.636719 48.371094 103.503906 48.601562 103.40625 C 48.828125 103.3125 49.066406 103.265625 49.316406 103.265625 C 49.5625 103.265625 49.800781 103.3125 50.03125 103.40625 C 50.257812 103.503906 50.460938 103.636719 50.636719 103.8125 C 50.8125 103.988281 50.945312 104.191406 51.039062 104.417969 C 51.136719 104.648438 51.183594 104.886719 51.183594 105.132812 L 51.183594 125.410156 C 51.183594 125.65625 51.136719 125.898438 51.042969 126.128906 C 50.949219 126.359375 50.816406 126.5625 50.640625 126.738281 C 50.464844 126.914062 50.261719 127.050781 50.03125 127.144531 C 49.800781 127.242188 49.5625 127.289062 49.316406 127.289062 Z M 49.316406 127.289062 " fill-opacity="1" fill-rule="nonzero"/><path fill="#ffffff" d="M 68.355469 127.289062 C 68.105469 127.289062 67.867188 127.242188 67.636719 127.144531 C 67.410156 127.050781 67.207031 126.917969 67.03125 126.742188 C 66.855469 126.566406 66.722656 126.363281 66.628906 126.136719 C 66.53125 125.90625 66.484375 125.667969 66.484375 125.421875 L 66.484375 105.132812 C 66.484375 104.886719 66.53125 104.648438 66.628906 104.417969 C 66.722656 104.191406 66.855469 103.988281 67.03125 103.8125 C 67.207031 103.636719 67.410156 103.503906 67.636719 103.40625 C 67.867188 103.3125 68.105469 103.265625 68.355469 103.265625 C 68.601562 103.265625 68.839844 103.3125 69.070312 103.40625 C 69.296875 103.503906 69.5 103.636719 69.675781 103.8125 C 69.851562 103.988281 69.984375 104.191406 70.078125 104.417969 C 70.175781 104.648438 70.222656 104.886719 70.222656 105.132812 L 70.222656 125.410156 C 70.222656 125.65625 70.175781 125.898438 70.082031 126.128906 C 69.988281 126.359375 69.855469 126.5625 69.679688 126.738281 C 69.503906 126.914062 69.300781 127.050781 69.070312 127.144531 C 68.839844 127.242188 68.601562 127.289062 68.355469 127.289062 Z M 68.355469 127.289062 " fill-opacity="1" fill-rule="nonzero"/><path fill="#ffffff" d="M 100.402344 130.15625 C 99.425781 130.15625 98.457031 130.0625 97.5 129.871094 C 96.539062 129.679688 95.609375 129.398438 94.707031 129.023438 C 93.804688 128.652344 92.945312 128.191406 92.132812 127.648438 C 91.320312 127.105469 90.570312 126.488281 89.878906 125.800781 C 89.1875 125.109375 88.570312 124.355469 88.027344 123.542969 C 87.488281 122.730469 87.027344 121.875 86.652344 120.972656 C 86.28125 120.070312 85.996094 119.136719 85.808594 118.179688 C 85.617188 117.222656 85.523438 116.253906 85.523438 115.277344 C 85.523438 114.300781 85.617188 113.332031 85.808594 112.375 C 85.996094 111.414062 86.28125 110.484375 86.652344 109.582031 C 87.027344 108.679688 87.488281 107.824219 88.027344 107.011719 C 88.570312 106.199219 89.1875 105.445312 89.878906 104.753906 C 90.570312 104.066406 91.320312 103.449219 92.132812 102.90625 C 92.945312 102.363281 93.804688 101.902344 94.707031 101.53125 C 95.609375 101.15625 96.539062 100.875 97.5 100.683594 C 98.457031 100.492188 99.425781 100.398438 100.402344 100.398438 C 101.378906 100.398438 102.347656 100.492188 103.304688 100.683594 C 104.261719 100.875 105.191406 101.15625 106.097656 101.53125 C 107 101.902344 107.855469 102.363281 108.667969 102.90625 C 109.480469 103.449219 110.230469 104.066406 110.921875 104.753906 C 111.613281 105.445312 112.230469 106.199219 112.773438 107.011719 C 113.316406 107.824219 113.773438 108.679688 114.148438 109.582031 C 114.523438 110.484375 114.804688 111.414062 114.996094 112.375 C 115.1875 113.332031 115.28125 114.300781 115.28125 115.277344 C 115.28125 116.253906 115.183594 117.222656 114.992188 118.179688 C 114.800781 119.136719 114.519531 120.066406 114.144531 120.96875 C 113.769531 121.871094 113.3125 122.726562 112.769531 123.539062 C 112.226562 124.351562 111.609375 125.101562 110.917969 125.792969 C 110.226562 126.484375 109.476562 127.101562 108.664062 127.644531 C 107.851562 128.1875 106.996094 128.644531 106.09375 129.019531 C 105.191406 129.394531 104.261719 129.675781 103.304688 129.867188 C 102.34375 130.058594 101.378906 130.15625 100.402344 130.15625 Z M 100.402344 104.136719 C 99.667969 104.136719 98.945312 104.207031 98.226562 104.351562 C 97.507812 104.492188 96.8125 104.703125 96.136719 104.984375 C 95.460938 105.265625 94.820312 105.609375 94.210938 106.015625 C 93.601562 106.421875 93.039062 106.882812 92.523438 107.402344 C 92.003906 107.917969 91.542969 108.480469 91.136719 109.089844 C 90.730469 109.699219 90.386719 110.339844 90.105469 111.015625 C 89.824219 111.691406 89.613281 112.390625 89.472656 113.105469 C 89.328125 113.824219 89.257812 114.550781 89.257812 115.28125 C 89.257812 116.011719 89.328125 116.738281 89.472656 117.453125 C 89.613281 118.171875 89.828125 118.871094 90.105469 119.546875 C 90.386719 120.222656 90.730469 120.863281 91.136719 121.472656 C 91.542969 122.082031 92.003906 122.644531 92.523438 123.160156 C 93.039062 123.679688 93.601562 124.140625 94.210938 124.546875 C 94.820312 124.953125 95.460938 125.296875 96.136719 125.574219 C 96.816406 125.855469 97.511719 126.066406 98.230469 126.210938 C 98.945312 126.351562 99.671875 126.421875 100.402344 126.421875 C 101.136719 126.421875 101.859375 126.351562 102.578125 126.207031 C 103.296875 126.066406 103.992188 125.855469 104.667969 125.574219 C 105.34375 125.292969 105.984375 124.949219 106.59375 124.542969 C 107.203125 124.136719 107.765625 123.675781 108.28125 123.15625 C 108.800781 122.640625 109.261719 122.078125 109.667969 121.46875 C 110.074219 120.859375 110.417969 120.21875 110.699219 119.542969 C 110.976562 118.867188 111.1875 118.167969 111.332031 117.453125 C 111.472656 116.734375 111.546875 116.007812 111.546875 115.277344 C 111.542969 114.546875 111.472656 113.820312 111.328125 113.105469 C 111.183594 112.386719 110.972656 111.691406 110.691406 111.015625 C 110.410156 110.339844 110.066406 109.699219 109.660156 109.089844 C 109.253906 108.484375 108.792969 107.921875 108.277344 107.40625 C 107.757812 106.886719 107.195312 106.425781 106.589844 106.019531 C 105.980469 105.613281 105.339844 105.269531 104.664062 104.988281 C 103.988281 104.710938 103.292969 104.5 102.574219 104.355469 C 101.855469 104.210938 101.132812 104.140625 100.402344 104.140625 Z M 100.402344 104.136719 " fill-opacity="1" fill-rule="nonzero"/><g clip-path="url(#a874f2278e)"><path fill="#ffffff" d="M 136.46875 96.792969 C 135.5 96.792969 134.53125 96.746094 133.570312 96.652344 C 132.605469 96.554688 131.648438 96.414062 130.699219 96.222656 C 129.75 96.035156 128.8125 95.800781 127.882812 95.519531 C 126.957031 95.238281 126.046875 94.914062 125.152344 94.542969 C 124.257812 94.171875 123.382812 93.757812 122.527344 93.300781 C 121.675781 92.84375 120.84375 92.347656 120.039062 91.808594 C 119.234375 91.269531 118.457031 90.695312 117.707031 90.082031 C 116.960938 89.464844 116.242188 88.816406 115.558594 88.132812 C 114.875 87.445312 114.222656 86.730469 113.609375 85.980469 C 112.996094 85.234375 112.417969 84.457031 111.878906 83.652344 C 111.34375 82.84375 110.84375 82.015625 110.390625 81.160156 C 109.933594 80.308594 109.519531 79.433594 109.148438 78.539062 C 108.777344 77.644531 108.453125 76.734375 108.171875 75.804688 C 107.890625 74.878906 107.65625 73.941406 107.464844 72.992188 C 107.277344 72.042969 107.132812 71.085938 107.039062 70.121094 C 106.945312 69.15625 106.898438 68.191406 106.898438 67.222656 C 106.898438 66.253906 106.945312 65.289062 107.039062 64.324219 C 107.132812 63.359375 107.277344 62.402344 107.464844 61.453125 C 107.65625 60.503906 107.890625 59.566406 108.171875 58.640625 C 108.453125 57.710938 108.777344 56.800781 109.148438 55.90625 C 109.519531 55.011719 109.933594 54.136719 110.390625 53.28125 C 110.84375 52.429688 111.34375 51.597656 111.878906 50.792969 C 112.417969 49.988281 112.996094 49.210938 113.609375 48.464844 C 114.222656 47.714844 114.875 46.996094 115.558594 46.3125 C 116.242188 45.628906 116.960938 44.980469 117.707031 44.363281 C 118.457031 43.75 119.234375 43.171875 120.039062 42.636719 C 120.84375 42.097656 121.675781 41.601562 122.527344 41.144531 C 123.382812 40.6875 124.257812 40.273438 125.152344 39.902344 C 126.046875 39.53125 126.957031 39.207031 127.882812 38.925781 C 128.8125 38.644531 129.75 38.410156 130.699219 38.21875 C 131.648438 38.03125 132.605469 37.890625 133.570312 37.792969 C 134.53125 37.699219 135.5 37.652344 136.46875 37.652344 C 137.4375 37.652344 138.402344 37.699219 139.367188 37.792969 C 140.328125 37.890625 141.285156 38.03125 142.238281 38.21875 C 143.1875 38.410156 144.125 38.644531 145.050781 38.925781 C 145.976562 39.207031 146.890625 39.53125 147.785156 39.902344 C 148.679688 40.273438 149.554688 40.6875 150.40625 41.144531 C 151.261719 41.601562 152.089844 42.097656 152.894531 42.636719 C 153.703125 43.171875 154.476562 43.75 155.226562 44.363281 C 155.976562 44.980469 156.691406 45.628906 157.378906 46.3125 C 158.0625 46.996094 158.710938 47.714844 159.324219 48.464844 C 159.941406 49.210938 160.515625 49.988281 161.054688 50.792969 C 161.59375 51.597656 162.089844 52.429688 162.546875 53.28125 C 163.003906 54.136719 163.417969 55.011719 163.785156 55.90625 C 164.15625 56.800781 164.484375 57.710938 164.765625 58.640625 C 165.046875 59.566406 165.28125 60.503906 165.46875 61.453125 C 165.660156 62.402344 165.800781 63.359375 165.894531 64.324219 C 165.992188 65.289062 166.039062 66.253906 166.039062 67.222656 C 166.035156 68.191406 165.988281 69.15625 165.890625 70.121094 C 165.796875 71.082031 165.652344 72.039062 165.464844 72.988281 C 165.273438 73.9375 165.039062 74.875 164.757812 75.800781 C 164.476562 76.730469 164.148438 77.640625 163.777344 78.535156 C 163.40625 79.425781 162.992188 80.300781 162.535156 81.15625 C 162.078125 82.007812 161.582031 82.835938 161.042969 83.644531 C 160.503906 84.449219 159.929688 85.222656 159.316406 85.972656 C 158.699219 86.722656 158.050781 87.4375 157.367188 88.121094 C 156.683594 88.804688 155.964844 89.457031 155.21875 90.070312 C 154.46875 90.683594 153.691406 91.261719 152.886719 91.796875 C 152.082031 92.335938 151.253906 92.835938 150.398438 93.289062 C 149.546875 93.746094 148.671875 94.160156 147.777344 94.53125 C 146.882812 94.902344 145.972656 95.230469 145.046875 95.511719 C 144.121094 95.792969 143.183594 96.027344 142.234375 96.21875 C 141.285156 96.410156 140.328125 96.550781 139.363281 96.648438 C 138.402344 96.742188 137.4375 96.792969 136.46875 96.792969 Z M 136.46875 41.390625 C 135.621094 41.390625 134.777344 41.429688 133.933594 41.511719 C 133.09375 41.597656 132.257812 41.71875 131.425781 41.886719 C 130.597656 42.050781 129.777344 42.253906 128.96875 42.5 C 128.160156 42.746094 127.363281 43.03125 126.582031 43.355469 C 125.800781 43.679688 125.035156 44.039062 124.289062 44.4375 C 123.542969 44.839844 122.820312 45.273438 122.113281 45.742188 C 121.410156 46.210938 120.734375 46.714844 120.078125 47.253906 C 119.425781 47.789062 118.796875 48.355469 118.199219 48.957031 C 117.601562 49.554688 117.035156 50.179688 116.496094 50.832031 C 115.960938 51.488281 115.457031 52.167969 114.988281 52.871094 C 114.515625 53.574219 114.082031 54.296875 113.683594 55.042969 C 113.285156 55.789062 112.925781 56.554688 112.601562 57.335938 C 112.277344 58.117188 111.992188 58.914062 111.746094 59.722656 C 111.5 60.53125 111.296875 61.351562 111.128906 62.183594 C 110.964844 63.011719 110.839844 63.847656 110.757812 64.691406 C 110.675781 65.53125 110.632812 66.375 110.632812 67.222656 C 110.632812 68.070312 110.675781 68.914062 110.757812 69.753906 C 110.839844 70.597656 110.964844 71.433594 111.128906 72.261719 C 111.296875 73.09375 111.5 73.910156 111.746094 74.722656 C 111.992188 75.53125 112.277344 76.328125 112.601562 77.109375 C 112.925781 77.890625 113.285156 78.652344 113.683594 79.402344 C 114.082031 80.148438 114.515625 80.871094 114.988281 81.574219 C 115.457031 82.277344 115.960938 82.957031 116.496094 83.609375 C 117.035156 84.265625 117.601562 84.890625 118.199219 85.488281 C 118.796875 86.089844 119.425781 86.65625 120.078125 87.191406 C 120.734375 87.730469 121.410156 88.230469 122.113281 88.703125 C 122.820312 89.171875 123.542969 89.605469 124.289062 90.003906 C 125.035156 90.40625 125.800781 90.765625 126.582031 91.089844 C 127.363281 91.414062 128.160156 91.699219 128.96875 91.945312 C 129.777344 92.191406 130.597656 92.394531 131.425781 92.558594 C 132.257812 92.726562 133.09375 92.847656 133.933594 92.933594 C 134.777344 93.015625 135.621094 93.054688 136.46875 93.054688 C 137.3125 93.054688 138.15625 93.015625 139 92.933594 C 139.839844 92.847656 140.675781 92.726562 141.507812 92.558594 C 142.335938 92.394531 143.15625 92.191406 143.964844 91.945312 C 144.777344 91.699219 145.570312 91.414062 146.355469 91.089844 C 147.136719 90.765625 147.898438 90.40625 148.644531 90.003906 C 149.390625 89.605469 150.117188 89.171875 150.820312 88.703125 C 151.523438 88.230469 152.203125 87.730469 152.855469 87.191406 C 153.511719 86.65625 154.136719 86.089844 154.734375 85.488281 C 155.332031 84.890625 155.902344 84.265625 156.4375 83.609375 C 156.972656 82.957031 157.476562 82.277344 157.949219 81.574219 C 158.417969 80.871094 158.851562 80.148438 159.25 79.402344 C 159.648438 78.652344 160.011719 77.890625 160.335938 77.109375 C 160.660156 76.328125 160.945312 75.53125 161.1875 74.722656 C 161.433594 73.910156 161.640625 73.09375 161.804688 72.261719 C 161.96875 71.433594 162.09375 70.597656 162.175781 69.753906 C 162.261719 68.914062 162.300781 68.070312 162.300781 67.222656 C 162.300781 66.375 162.257812 65.53125 162.175781 64.691406 C 162.089844 63.851562 161.964844 63.015625 161.800781 62.183594 C 161.632812 61.355469 161.425781 60.535156 161.179688 59.726562 C 160.933594 58.917969 160.648438 58.121094 160.324219 57.339844 C 160 56.558594 159.640625 55.796875 159.242188 55.050781 C 158.839844 54.304688 158.40625 53.582031 157.9375 52.878906 C 157.46875 52.175781 156.964844 51.496094 156.425781 50.84375 C 155.890625 50.1875 155.324219 49.5625 154.726562 48.964844 C 154.125 48.367188 153.5 47.800781 152.847656 47.261719 C 152.195312 46.726562 151.515625 46.222656 150.8125 45.753906 C 150.109375 45.28125 149.382812 44.847656 148.640625 44.449219 C 147.894531 44.050781 147.128906 43.6875 146.347656 43.363281 C 145.566406 43.039062 144.773438 42.753906 143.964844 42.507812 C 143.152344 42.261719 142.335938 42.054688 141.503906 41.890625 C 140.675781 41.726562 139.839844 41.601562 139 41.515625 C 138.15625 41.433594 137.3125 41.390625 136.46875 41.390625 Z M 136.46875 41.390625 " fill-opacity="1" fill-rule="nonzero"/></g><path fill="#ffffff" d="M 128.605469 84.164062 C 128.089844 84.164062 127.648438 83.980469 127.285156 83.613281 L 120.074219 76.402344 C 119.898438 76.226562 119.761719 76.027344 119.667969 75.796875 C 119.574219 75.566406 119.523438 75.328125 119.523438 75.082031 C 119.523438 74.835938 119.574219 74.597656 119.667969 74.367188 C 119.761719 74.136719 119.898438 73.9375 120.074219 73.761719 L 126.613281 67.222656 L 120.074219 60.679688 C 119.898438 60.503906 119.761719 60.304688 119.667969 60.074219 C 119.574219 59.847656 119.523438 59.609375 119.523438 59.359375 C 119.523438 59.113281 119.574219 58.875 119.667969 58.644531 C 119.761719 58.417969 119.898438 58.214844 120.074219 58.039062 L 127.285156 50.828125 C 127.460938 50.652344 127.660156 50.519531 127.890625 50.425781 C 128.121094 50.328125 128.359375 50.28125 128.605469 50.28125 C 128.851562 50.28125 129.089844 50.328125 129.320312 50.425781 C 129.546875 50.519531 129.75 50.652344 129.925781 50.828125 L 136.46875 57.371094 L 143.007812 50.828125 C 143.183594 50.652344 143.386719 50.519531 143.617188 50.425781 C 143.84375 50.328125 144.082031 50.28125 144.332031 50.28125 C 144.578125 50.28125 144.816406 50.328125 145.042969 50.425781 C 145.273438 50.519531 145.476562 50.652344 145.652344 50.828125 L 152.863281 58.039062 C 153.035156 58.214844 153.171875 58.417969 153.265625 58.644531 C 153.359375 58.875 153.40625 59.113281 153.40625 59.359375 C 153.40625 59.609375 153.359375 59.84375 153.265625 60.074219 C 153.171875 60.304688 153.035156 60.503906 152.863281 60.679688 L 146.320312 67.222656 L 152.863281 73.761719 C 153.035156 73.9375 153.171875 74.140625 153.265625 74.367188 C 153.359375 74.597656 153.40625 74.835938 153.40625 75.082031 C 153.40625 75.328125 153.359375 75.566406 153.265625 75.796875 C 153.171875 76.027344 153.035156 76.226562 152.863281 76.402344 L 145.652344 83.613281 C 145.476562 83.789062 145.273438 83.925781 145.042969 84.019531 C 144.816406 84.113281 144.578125 84.160156 144.332031 84.160156 C 144.082031 84.160156 143.84375 84.113281 143.617188 84.019531 C 143.386719 83.925781 143.183594 83.789062 143.007812 83.613281 L 136.46875 77.074219 L 129.925781 83.617188 C 129.5625 83.980469 129.121094 84.164062 128.605469 84.164062 Z M 124.035156 75.082031 L 128.605469 79.652344 L 135.140625 73.113281 C 135.316406 72.9375 135.515625 72.800781 135.746094 72.707031 C 135.976562 72.613281 136.214844 72.566406 136.460938 72.566406 C 136.710938 72.566406 136.949219 72.613281 137.175781 72.707031 C 137.40625 72.800781 137.609375 72.9375 137.785156 73.113281 L 144.335938 79.652344 L 148.90625 75.082031 L 142.367188 68.542969 C 142.191406 68.367188 142.054688 68.164062 141.960938 67.9375 C 141.867188 67.707031 141.820312 67.46875 141.820312 67.222656 C 141.820312 66.972656 141.867188 66.734375 141.960938 66.507812 C 142.054688 66.277344 142.191406 66.074219 142.367188 65.898438 L 148.90625 59.363281 L 144.335938 54.792969 L 137.796875 61.332031 C 137.625 61.507812 137.421875 61.640625 137.191406 61.738281 C 136.964844 61.832031 136.722656 61.878906 136.476562 61.878906 C 136.226562 61.878906 135.988281 61.832031 135.761719 61.738281 C 135.53125 61.640625 135.328125 61.507812 135.152344 61.332031 L 128.613281 54.792969 L 124.046875 59.363281 L 130.578125 65.910156 C 130.753906 66.085938 130.886719 66.289062 130.980469 66.519531 C 131.078125 66.746094 131.125 66.984375 131.125 67.234375 C 131.125 67.480469 131.078125 67.71875 130.980469 67.945312 C 130.886719 68.175781 130.753906 68.378906 130.578125 68.554688 Z M 124.035156 75.082031 " fill-opacity="1" fill-rule="nonzero"/><g clip-path="url(#0943519ba9)"><path fill="#ffffff" d="M 100.664062 108.101562 C 99.609375 108.101562 98.605469 108.316406 97.644531 108.746094 C 96.683594 109.175781 95.851562 109.78125 95.152344 110.566406 L 95.152344 108.671875 C 95.152344 108.515625 95.09375 108.382812 94.984375 108.269531 C 94.871094 108.160156 94.738281 108.101562 94.582031 108.101562 C 94.421875 108.101562 94.289062 108.160156 94.179688 108.269531 C 94.066406 108.382812 94.011719 108.515625 94.011719 108.671875 L 94.011719 112.476562 C 94.011719 112.632812 94.070312 112.765625 94.179688 112.875 C 94.289062 112.988281 94.425781 113.042969 94.582031 113.042969 L 98.382812 113.042969 C 98.539062 113.042969 98.675781 112.988281 98.785156 112.878906 C 98.898438 112.765625 98.953125 112.632812 98.953125 112.476562 C 98.953125 112.316406 98.898438 112.183594 98.785156 112.070312 C 98.675781 111.960938 98.539062 111.90625 98.382812 111.90625 L 95.53125 111.90625 C 95.914062 111.359375 96.375 110.886719 96.90625 110.488281 C 97.441406 110.089844 98.023438 109.78125 98.65625 109.570312 C 99.289062 109.355469 99.9375 109.246094 100.601562 109.238281 C 101.269531 109.230469 101.921875 109.328125 102.558594 109.53125 C 103.191406 109.730469 103.78125 110.027344 104.324219 110.417969 C 104.863281 110.804688 105.332031 111.269531 105.726562 111.808594 C 106.117188 112.34375 106.417969 112.929688 106.625 113.566406 C 106.832031 114.199219 106.9375 114.847656 106.9375 115.515625 C 106.9375 115.671875 106.992188 115.808594 107.101562 115.917969 C 107.214844 116.03125 107.347656 116.085938 107.503906 116.085938 C 107.664062 116.085938 107.796875 116.03125 107.910156 115.917969 C 108.019531 115.808594 108.074219 115.671875 108.074219 115.515625 C 108.074219 115.027344 108.027344 114.546875 107.933594 114.070312 C 107.835938 113.59375 107.695312 113.128906 107.507812 112.679688 C 107.324219 112.230469 107.09375 111.804688 106.824219 111.398438 C 106.554688 110.996094 106.246094 110.621094 105.902344 110.277344 C 105.558594 109.933594 105.183594 109.625 104.78125 109.355469 C 104.375 109.085938 103.949219 108.855469 103.5 108.667969 C 103.050781 108.484375 102.585938 108.34375 102.109375 108.246094 C 101.632812 108.152344 101.148438 108.105469 100.664062 108.101562 Z M 100.664062 108.101562 " fill-opacity="1" fill-rule="nonzero"/></g><path fill="#ffffff" d="M 106.746094 117.988281 L 102.945312 117.988281 C 102.785156 117.988281 102.652344 118.042969 102.539062 118.152344 C 102.429688 118.265625 102.375 118.398438 102.375 118.558594 C 102.375 118.714844 102.429688 118.847656 102.539062 118.960938 C 102.652344 119.070312 102.785156 119.128906 102.945312 119.128906 L 105.796875 119.128906 C 105.410156 119.671875 104.953125 120.144531 104.417969 120.542969 C 103.886719 120.945312 103.300781 121.25 102.671875 121.464844 C 102.039062 121.675781 101.390625 121.785156 100.722656 121.792969 C 100.054688 121.800781 99.40625 121.703125 98.769531 121.5 C 98.132812 121.300781 97.546875 121.003906 97.003906 120.613281 C 96.460938 120.226562 95.996094 119.761719 95.601562 119.222656 C 95.207031 118.6875 94.90625 118.101562 94.699219 117.464844 C 94.492188 116.832031 94.390625 116.183594 94.390625 115.515625 C 94.390625 115.359375 94.335938 115.222656 94.222656 115.113281 C 94.113281 115 93.976562 114.945312 93.820312 114.945312 C 93.664062 114.945312 93.527344 115 93.417969 115.113281 C 93.304688 115.222656 93.25 115.359375 93.25 115.515625 C 93.25 116.265625 93.359375 117 93.582031 117.714844 C 93.804688 118.433594 94.125 119.101562 94.550781 119.71875 C 94.976562 120.339844 95.484375 120.878906 96.070312 121.34375 C 96.660156 121.808594 97.308594 122.175781 98.007812 122.445312 C 98.707031 122.710938 99.433594 122.871094 100.183594 122.917969 C 100.929688 122.964844 101.671875 122.902344 102.398438 122.726562 C 103.128906 122.550781 103.816406 122.269531 104.460938 121.882812 C 105.101562 121.496094 105.675781 121.023438 106.175781 120.464844 L 106.175781 122.359375 C 106.175781 122.515625 106.230469 122.648438 106.34375 122.761719 C 106.453125 122.871094 106.589844 122.929688 106.746094 122.929688 C 106.902344 122.929688 107.039062 122.871094 107.148438 122.761719 C 107.261719 122.648438 107.316406 122.515625 107.316406 122.359375 L 107.316406 118.558594 C 107.3125 118.398438 107.257812 118.265625 107.148438 118.15625 C 107.035156 118.046875 106.902344 117.988281 106.746094 117.988281 Z M 106.746094 117.988281 " fill-opacity="1" fill-rule="nonzero"/></svg>